<svg width="39" height="39" viewBox="0 0 39 39" xmlns="http://www.w3.org/2000/svg"><title>facebook</title><desc>Created with Sketch.</desc><defs><filter x="-50%" y="-50%" width="200%" height="200%" filterUnits="objectBoundingBox" id="a"><feOffset in="SourceAlpha" result="shadowOffsetOuter1"/><feGaussianBlur stdDeviation="3" in="shadowOffsetOuter1" result="shadowBlurOuter1"/><feColorMatrix values="0 0 0 0 0.627577594 0 0 0 0 0.627577594 0 0 0 0 0.627577594 0 0 0 0.326024683 0" in="shadowBlurOuter1" result="shadowMatrixOuter1"/><feMerge><feMergeNode in="shadowMatrixOuter1"/><feMergeNode in="SourceGraphic"/></feMerge></filter></defs><path d="M-1.49 30h-24.018c-.825 0-1.492.667-1.492 1.49v24.02c0 .823.667 1.49 1.492 1.49h12.93V46.543h-3.52V42.47h3.52v-3.007c0-3.488 2.13-5.386 5.24-5.386 1.49 0 2.772.11 3.145.16v3.644l-2.158.004c-1.694 0-2.02.804-2.02 1.984v2.602h4.033l-.526 4.073h-3.51V57h6.882C-.668 57 0 56.33 0 55.51V31.49C0 30.666-.67 30-1.49 30z" transform="translate(33 -24)" fill-opacity=".79" filter="url(#a)" fill="#fff" fill-rule="evenodd"/></svg>