<svg width="37" height="34" viewBox="0 0 37 34" xmlns="http://www.w3.org/2000/svg"><title>github</title><desc>Created with Sketch.</desc><defs><filter x="-50%" y="-50%" width="200%" height="200%" filterUnits="objectBoundingBox" id="a"><feOffset in="SourceAlpha" result="shadowOffsetOuter1"/><feGaussianBlur stdDeviation="3" in="shadowOffsetOuter1" result="shadowBlurOuter1"/><feColorMatrix values="0 0 0 0 0.627577594 0 0 0 0 0.627577594 0 0 0 0 0.627577594 0 0 0 0.326024683 0" in="shadowBlurOuter1" result="shadowMatrixOuter1"/><feMerge><feMergeNode in="shadowMatrixOuter1"/><feMergeNode in="SourceGraphic"/></feMerge></filter></defs><g fill="none" fill-rule="evenodd"><g transform="translate(-128 -27)" fill-opacity=".79" filter="url(#a)" fill="#fff"><path d="M161.88 43.696c.004.003.013.003.02.003.046 0 .088-.036.1-.085.008-.056-.03-.106-.084-.12-1.366-.25-3.348-.53-6.716-.504.21-.78.323-1.706.345-2.802-.003-2.97-1.416-4.02-1.687-4.515.4-2.248-.068-3.272-.285-3.624-.8-.287-2.784.734-3.867 1.458-1.77-.522-5.502-.47-6.904.134-2.584-1.862-3.95-1.577-3.95-1.577s-.885 1.593-.232 3.927c-.852 1.093-1.484 1.863-1.484 3.91 0 1.154.136 2.185.438 3.086-1.35-.003-5.17.18-6.498.51-.052.014-.086.07-.074.123.013.047.053.08.1.08.006 0 .015 0 .024-.006 1.34-.333 5.252-.515 6.52-.504.072.195.155.38.246.563-3.266.088-5.13.558-6.498.905-.1.024-.2.047-.29.07-.053.014-.09.07-.074.124.012.046.05.077.096.077l.024-.004.29-.074c1.376-.347 3.25-.82 6.554-.9.96 1.76 2.81 2.862 5.917 3.178l.087.01c-.45.343-.994.996-1.067 1.754-.568.37-1.705.49-2.593.21-1.24-.395-1.717-2.87-3.577-2.52-.403.08-.324.346.027.572.564.37 1.1.833 1.51 1.815.315.757.982 2.105 3.084 2.105.833 0 1.417-.1 1.417-.1s.015 1.927.015 2.68c0 .863-1.158 1.105-1.158 1.522 0 .165.385.18.693.18.608 0 1.875-.51 1.875-1.41 0-.714.012-3.114.012-3.532 0-.918.488-1.21.488-1.21s.062 4.9-.117 5.555c-.21.774-.583.664-.583 1.006 0 .515 1.526.127 2.032-.997.39-.875.22-5.682.22-5.682l.413-.01s.024 2.202.01 3.208c-.013 1.04-.084 2.357.532 2.977.4.41 1.713 1.127 1.713.473 0-.38-.722-.694-.722-1.725v-4.74c.577 0 .49 1.56.49 1.56l.042 2.894s-.127 1.054 1.134 1.498c.444.156 1.394.197 1.44-.065.044-.262-1.146-.656-1.158-1.473-.006-.497.024-.79.024-2.953 0-2.162-.288-2.964-1.296-3.603.34-.035.664-.077.975-.123 2.542-.383 4.155-1.2 4.988-3.045 1.08.036 4.315.148 6.933.954.013.003.022.003.033.003.04 0 .08-.03.093-.072.015-.053-.015-.11-.068-.125-2.58-.794-5.75-.918-6.907-.956.075-.184.143-.37.2-.568 3.393-.034 5.373.247 6.74.5z"/></g></g></svg>