<svg width="34" height="34" viewBox="0 0 34 34" xmlns="http://www.w3.org/2000/svg"><title>instagram</title><desc>Created with Sketch.</desc><defs><filter x="-50%" y="-50%" width="200%" height="200%" filterUnits="objectBoundingBox" id="a"><feOffset in="SourceAlpha" result="shadowOffsetOuter1"/><feGaussianBlur stdDeviation="3" in="shadowOffsetOuter1" result="shadowBlurOuter1"/><feColorMatrix values="0 0 0 0 0.627577594 0 0 0 0 0.627577594 0 0 0 0 0.627577594 0 0 0 0.326024683 0" in="shadowBlurOuter1" result="shadowMatrixOuter1"/><feMerge><feMergeNode in="shadowMatrixOuter1"/><feMergeNode in="SourceGraphic"/></feMerge></filter></defs><g fill="none" fill-rule="evenodd"><g transform="translate(-77 -27)" fill-opacity=".79" filter="url(#a)" fill="#fff"><path d="M85.305 33C84.033 33 83 34.033 83 35.305v17.39C83 53.97 84.03 55 85.305 55h17.39c1.272 0 2.305-1.03 2.305-2.305v-17.39c0-1.272-1.033-2.305-2.305-2.305h-17.39zm8.708 6.656c2.38 0 4.31 1.93 4.31 4.312 0 2.38-1.93 4.31-4.31 4.31s-4.31-1.93-4.31-4.31c0-2.383 1.93-4.312 4.31-4.312zm8.473 12.008c0 .55-.39.776-.984.776H86.455c-.594 0-.984-.227-.984-.776v-9.4h1.852c-.127.522-.197 1.068-.197 1.628 0 3.79 3.074 6.866 6.865 6.866 3.792 0 6.866-3.075 6.866-6.866 0-.562-.07-1.106-.197-1.63h1.824c.002 0 .002 8.85.002 9.402zm.023-12.667c0 .436-.355.79-.79.79h-2.75c-.437 0-.79-.354-.79-.79v-2.75c0-.438.353-.79.79-.79h2.75c.435 0 .79.352.79.79v2.75z"/></g></g></svg>