<svg width="38" height="28" viewBox="0 0 38 28" xmlns="http://www.w3.org/2000/svg"><title>last_fm</title><desc>Created with Sketch.</desc><defs><filter x="-50%" y="-50%" width="200%" height="200%" filterUnits="objectBoundingBox" id="a"><feOffset in="SourceAlpha" result="shadowOffsetOuter1"/><feGaussianBlur stdDeviation="3" in="shadowOffsetOuter1" result="shadowBlurOuter1"/><feColorMatrix values="0 0 0 0 0.627577594 0 0 0 0 0.627577594 0 0 0 0 0.627577594 0 0 0 0.326024683 0" in="shadowBlurOuter1" result="shadowMatrixOuter1"/><feMerge><feMergeNode in="shadowMatrixOuter1"/><feMergeNode in="SourceGraphic"/></feMerge></filter></defs><g fill="none" fill-rule="evenodd"><g transform="translate(-182 -30)" fill-opacity=".79" filter="url(#a)" fill="#fff"><path d="M210.908 42.713c-2.075-.676-3.56-.926-3.56-2.577 0-1.16.903-2.035 2.165-2.035.907 0 1.623.356 2.274 1.26l1.72-.874c-.877-1.546-2.146-2.323-3.9-2.323-2.69 0-4.346 1.613-4.346 4.034 0 2.483 1.625 3.517 4.775 4.55 1.752.577 2.788.932 2.788 2.416 0 1.516-1.362 2.718-3.345 2.648-2.016-.067-2.637-1.16-3.37-2.82-1.174-2.67-2.525-5.81-2.63-6.053C202.1 37.78 199.396 36 196.042 36c-4.445 0-8.042 3.582-8.042 8 0 4.42 3.597 8 8.042 8 2.508 0 4.746-1.14 6.222-2.925l-1.04-2.383c-.974 1.852-2.932 3.12-5.182 3.12-3.222 0-5.843-2.6-5.843-5.812 0-3.208 2.618-5.81 5.842-5.81 2.385 0 4.497 1.39 5.35 3.45l2.566 5.82.298.655c1.04 2.41 2.537 3.778 5.35 3.79 3.055.003 5.394-1.966 5.394-4.68 0-2.575-1.298-3.607-4.092-4.512z"/></g></g></svg>