<svg width="35" height="33" viewBox="0 0 35 33" xmlns="http://www.w3.org/2000/svg"><title>twitter</title><desc>Created with Sketch.</desc><defs><filter x="-50%" y="-50%" width="200%" height="200%" filterUnits="objectBoundingBox" id="a"><feOffset in="SourceAlpha" result="shadowOffsetOuter1"/><feGaussianBlur stdDeviation="3" in="shadowOffsetOuter1" result="shadowBlurOuter1"/><feColorMatrix values="0 0 0 0 0.627577594 0 0 0 0 0.627577594 0 0 0 0 0.627577594 0 0 0 0.326024683 0" in="shadowBlurOuter1" result="shadowMatrixOuter1"/><feMerge><feMergeNode in="shadowMatrixOuter1"/><feMergeNode in="SourceGraphic"/></feMerge></filter></defs><g fill="none" fill-rule="evenodd"><g transform="translate(-25 -28)" fill-opacity=".79" filter="url(#a)" fill="#fff"><path d="M56 35.604c-.992.443-2.062.744-3.184.873 1.146-.686 2.022-1.775 2.44-3.07-1.073.637-2.257 1.098-3.52 1.347C50.723 33.676 49.285 33 47.693 33c-3.06 0-5.54 2.485-5.54 5.553 0 .435.05.86.144 1.27-4.604-.237-8.687-2.447-11.42-5.806-.477.824-.75 1.775-.75 2.794 0 1.926.98 3.625 2.466 4.623-.908-.03-1.764-.28-2.51-.694v.07c0 2.69 1.91 4.932 4.446 5.443-.468.127-.96.197-1.46.197-.356 0-.707-.035-1.044-.102.706 2.206 2.753 3.814 5.176 3.856-1.897 1.49-4.286 2.376-6.88 2.376-.448 0-.89-.024-1.322-.077C31.45 54.083 34.36 55 37.49 55c10.19 0 15.76-8.463 15.76-15.8 0-.24-.004-.48-.015-.716 1.086-.79 2.02-1.766 2.765-2.88z"/></g></g></svg>